<svg width="349" height="269" viewBox="0 0 349 269" fill="none" xmlns="http://www.w3.org/2000/svg">
<g filter="url(#filter0_d_0_100)">
<path d="M70 10C70 4.47715 74.4772 0 80 0H239C244.523 0 249 4.47715 249 10V72H80C74.4772 72 70 67.5229 70 62V10Z" fill="white"/>
</g>
<g clip-path="url(#clip0_0_100)">
<path d="M113.745 45.16V50H97.5053V45.16H103.185V33.04C102.945 33.36 102.559 33.6933 102.025 34.04C101.519 34.36 100.959 34.6667 100.345 34.96C99.732 35.2533 99.092 35.4933 98.4253 35.68C97.7853 35.8667 97.212 35.96 96.7053 35.96V30.96C97.1853 30.96 97.772 30.8133 98.4653 30.52C99.1586 30.2 99.8386 29.8267 100.505 29.4C101.172 28.9733 101.745 28.56 102.225 28.16C102.732 27.7333 103.052 27.4 103.185 27.16H108.665V45.16H113.745ZM137.111 41.6C137.111 42.9333 136.831 44.1333 136.271 45.2C135.738 46.2667 134.991 47.1867 134.031 47.96C133.098 48.7333 132.004 49.3333 130.751 49.76C129.498 50.16 128.164 50.36 126.751 50.36C125.338 50.36 124.004 50.1467 122.751 49.72C121.498 49.2667 120.404 48.64 119.471 47.84C118.538 47.04 117.804 46.0933 117.271 45C116.738 43.9067 116.471 42.7067 116.471 41.4C116.471 40.6 116.604 39.8667 116.871 39.2C117.138 38.5067 117.484 37.88 117.911 37.32C118.338 36.76 118.804 36.2667 119.311 35.84C119.844 35.4133 120.378 35.0667 120.911 34.8C119.924 34.32 119.084 33.6 118.391 32.64C117.698 31.68 117.351 30.6267 117.351 29.48C117.351 28.2 117.631 27.08 118.191 26.12C118.778 25.1333 119.524 24.3067 120.431 23.64C121.364 22.9733 122.378 22.4667 123.471 22.12C124.591 21.7733 125.698 21.6 126.791 21.6C127.858 21.6 128.951 21.7733 130.071 22.12C131.218 22.44 132.244 22.9333 133.151 23.6C134.058 24.2667 134.804 25.0933 135.391 26.08C135.978 27.04 136.271 28.16 136.271 29.44C136.271 30 136.178 30.56 135.991 31.12C135.804 31.6533 135.538 32.16 135.191 32.64C134.871 33.0933 134.484 33.5067 134.031 33.88C133.578 34.2533 133.098 34.56 132.591 34.8C133.178 35.0933 133.738 35.4667 134.271 35.92C134.804 36.3467 135.284 36.8533 135.711 37.44C136.138 38 136.471 38.6267 136.711 39.32C136.978 40.0133 137.111 40.7733 137.111 41.6ZM131.671 41.28C131.671 40.6133 131.524 40.0133 131.231 39.48C130.964 38.9467 130.591 38.5067 130.111 38.16C129.658 37.7867 129.138 37.5067 128.551 37.32C127.964 37.1333 127.364 37.04 126.751 37.04C126.111 37.04 125.498 37.1467 124.911 37.36C124.324 37.5467 123.804 37.8267 123.351 38.2C122.924 38.5733 122.578 39.0267 122.311 39.56C122.044 40.0667 121.911 40.64 121.911 41.28C121.911 41.92 122.044 42.5067 122.311 43.04C122.604 43.5467 122.978 43.9867 123.431 44.36C123.884 44.7333 124.404 45.0267 124.991 45.24C125.578 45.4267 126.178 45.52 126.791 45.52C127.431 45.52 128.044 45.4133 128.631 45.2C129.218 44.9867 129.738 44.6933 130.191 44.32C130.644 43.9467 131.004 43.5067 131.271 43C131.538 42.4667 131.671 41.8933 131.671 41.28ZM122.791 29.64C122.791 30.2 122.911 30.6933 123.151 31.12C123.391 31.52 123.698 31.8667 124.071 32.16C124.471 32.4267 124.898 32.64 125.351 32.8C125.831 32.9333 126.311 33 126.791 33C127.244 33 127.711 32.9333 128.191 32.8C128.671 32.64 129.098 32.4133 129.471 32.12C129.871 31.8267 130.191 31.48 130.431 31.08C130.671 30.6533 130.791 30.16 130.791 29.6C130.791 28.6133 130.391 27.8267 129.591 27.24C128.818 26.6533 127.871 26.36 126.751 26.36C125.658 26.36 124.724 26.6667 123.951 27.28C123.178 27.8667 122.791 28.6533 122.791 29.64ZM150.452 37.24C151.785 37.24 153.025 37.4667 154.172 37.92C155.318 38.3467 156.305 38.96 157.132 39.76C157.958 40.56 158.598 41.52 159.052 42.64C159.532 43.76 159.772 45 159.772 46.36C159.772 47.8 159.505 49.1067 158.972 50.28C158.465 51.4533 157.745 52.4533 156.812 53.28C155.878 54.1333 154.772 54.7867 153.492 55.24C152.212 55.72 150.825 55.96 149.332 55.96C147.252 55.96 145.385 55.52 143.732 54.64C142.105 53.76 140.865 52.56 140.012 51.04L143.092 47.84C143.838 48.88 144.772 49.7067 145.892 50.32C147.012 50.9333 148.172 51.24 149.372 51.24C150.812 51.24 151.985 50.8133 152.892 49.96C153.825 49.08 154.292 47.92 154.292 46.48C154.292 45.0933 153.852 43.9733 152.972 43.12C152.118 42.2667 151.025 41.84 149.692 41.84C148.812 41.84 147.985 42.04 147.212 42.44C146.465 42.84 145.865 43.3867 145.412 44.08H140.732C140.732 44 140.785 43.7067 140.892 43.2C140.998 42.6667 141.132 42 141.292 41.2C141.452 40.3733 141.625 39.4667 141.812 38.48C141.998 37.4667 142.198 36.44 142.412 35.4C142.892 32.9467 143.425 30.2 144.012 27.16H158.012V32.04H147.892L146.732 38.4C147.052 38.0533 147.518 37.7733 148.132 37.56C148.772 37.3467 149.545 37.24 150.452 37.24Z" fill="#0C122C"/>
<path opacity="0.5" d="M177.534 41.04C176.854 41.72 176.062 42.06 175.158 42.06C174.598 42.06 174.07 41.948 173.574 41.724C173.086 41.5 172.658 41.192 172.29 40.8C171.93 40.408 171.642 39.948 171.426 39.42C171.218 38.884 171.114 38.308 171.114 37.692C171.114 37.108 171.218 36.56 171.426 36.048C171.642 35.528 171.934 35.076 172.302 34.692C172.678 34.3 173.118 33.992 173.622 33.768C174.126 33.536 174.674 33.42 175.266 33.42C176.066 33.42 176.75 33.588 177.318 33.924C177.894 34.26 178.326 34.712 178.614 35.28L177.378 36.192C177.162 35.768 176.858 35.444 176.466 35.22C176.082 34.996 175.662 34.884 175.206 34.884C174.846 34.884 174.514 34.96 174.21 35.112C173.914 35.264 173.658 35.472 173.442 35.736C173.234 36 173.07 36.304 172.95 36.648C172.838 36.992 172.782 37.356 172.782 37.74C172.782 38.14 172.846 38.516 172.974 38.868C173.102 39.212 173.278 39.512 173.502 39.768C173.726 40.024 173.99 40.228 174.294 40.38C174.606 40.524 174.942 40.596 175.302 40.596C176.126 40.596 176.87 40.208 177.534 39.432V38.832H175.818V37.62H178.902V42H177.534V41.04ZM188.178 39.804C188.178 40.164 188.106 40.48 187.962 40.752C187.818 41.024 187.618 41.252 187.362 41.436C187.114 41.62 186.822 41.76 186.486 41.856C186.158 41.952 185.806 42 185.43 42H181.314V33.48H185.874C186.17 33.48 186.438 33.544 186.678 33.672C186.918 33.8 187.122 33.968 187.29 34.176C187.458 34.376 187.586 34.608 187.674 34.872C187.77 35.128 187.818 35.388 187.818 35.652C187.818 36.068 187.714 36.46 187.506 36.828C187.298 37.188 186.994 37.456 186.594 37.632C187.082 37.776 187.466 38.036 187.746 38.412C188.034 38.78 188.178 39.244 188.178 39.804ZM186.51 39.492C186.51 39.34 186.482 39.196 186.426 39.06C186.378 38.916 186.31 38.792 186.222 38.688C186.134 38.584 186.03 38.504 185.91 38.448C185.79 38.384 185.658 38.352 185.514 38.352H182.97V40.596H185.43C185.582 40.596 185.722 40.568 185.85 40.512C185.986 40.456 186.102 40.38 186.198 40.284C186.294 40.18 186.37 40.06 186.426 39.924C186.482 39.788 186.51 39.644 186.51 39.492ZM182.97 34.896V37.044H185.178C185.458 37.044 185.694 36.948 185.886 36.756C186.086 36.564 186.186 36.3 186.186 35.964C186.186 35.636 186.094 35.376 185.91 35.184C185.734 34.992 185.514 34.896 185.25 34.896H182.97ZM194.353 42V33.48H196.009V40.548H200.353V42H194.353ZM208.277 40.548V42H202.361V33.48H208.169V34.932H204.017V36.984H207.605V38.328H204.017V40.548H208.277ZM210.568 42V33.48H216.292V34.932H212.224V37.128H215.608V38.472H212.224V42H210.568ZM224.83 34.932H222.106V42H220.462V34.932H217.738V33.48H224.83V34.932Z" fill="#0C122C"/>
</g>
<g filter="url(#filter1_d_0_100)">
<path fill-rule="evenodd" clip-rule="evenodd" d="M226.339 71L249 93.6609V71H226.339Z" fill="white"/>
</g>
<defs>
<filter id="filter0_d_0_100" x="0" y="0" width="319" height="217" filterUnits="userSpaceOnUse" color-interpolation-filters="sRGB">
<feFlood flood-opacity="0" result="BackgroundImageFix"/>
<feColorMatrix in="SourceAlpha" type="matrix" values="0 0 0 0 0 0 0 0 0 0 0 0 0 0 0 0 0 0 127 0" result="hardAlpha"/>
<feMorphology radius="30" operator="erode" in="SourceAlpha" result="effect1_dropShadow_0_100"/>
<feOffset dy="75"/>
<feGaussianBlur stdDeviation="50"/>
<feColorMatrix type="matrix" values="0 0 0 0 0 0 0 0 0 0 0 0 0 0 0 0 0 0 0.24776 0"/>
<feBlend mode="normal" in2="BackgroundImageFix" result="effect1_dropShadow_0_100"/>
<feBlend mode="normal" in="SourceGraphic" in2="effect1_dropShadow_0_100" result="shape"/>
</filter>
<filter id="filter1_d_0_100" x="126.339" y="46" width="222.661" height="222.661" filterUnits="userSpaceOnUse" color-interpolation-filters="sRGB">
<feFlood flood-opacity="0" result="BackgroundImageFix"/>
<feColorMatrix in="SourceAlpha" type="matrix" values="0 0 0 0 0 0 0 0 0 0 0 0 0 0 0 0 0 0 127 0" result="hardAlpha"/>
<feOffset dy="75"/>
<feGaussianBlur stdDeviation="50"/>
<feColorMatrix type="matrix" values="0 0 0 0 0 0 0 0 0 0 0 0 0 0 0 0 0 0 0.24776 0"/>
<feBlend mode="normal" in2="BackgroundImageFix" result="effect1_dropShadow_0_100"/>
<feBlend mode="normal" in="SourceGraphic" in2="effect1_dropShadow_0_100" result="shape"/>
</filter>
<clipPath id="clip0_0_100">
<rect width="131" height="40" fill="white" transform="translate(94 16)"/>
</clipPath>
</defs>
</svg>
