<svg width="2880" height="840" viewBox="0 0 2880 840" fill="none" xmlns="http://www.w3.org/2000/svg">
<g id="Path 2">
<path id="Mask" d="M0 420C0 188.04 188.04 0 420 0H2880V840H0V420Z" fill="#0F1B3D"/>
<mask id="mask0_0_54" style="mask-type:luminance" maskUnits="userSpaceOnUse" x="0" y="0" width="2880" height="840">
<path id="Mask_2" d="M0 420C0 188.04 188.04 0 420 0H2880V840H0V420Z" fill="white"/>
</mask>
<g mask="url(#mask0_0_54)">
<path id="Path 2 Copy 2" fill-rule="evenodd" clip-rule="evenodd" d="M3893.92 1316.06C3960.48 957.266 3765.16 639.983 2978.67 573.271C2192.18 506.56 2151.84 74.1823 1720.51 -314.476C1289.18 -703.135 501.873 -976.299 281.199 -250.473C60.5254 475.352 146.286 948.381 863.516 1545.6C1580.75 2142.83 2335.74 2019.42 2647.74 1973.52C2959.73 1927.62 3827.35 1674.85 3893.92 1316.06Z" fill="url(#paint0_linear_0_54)" fill-opacity="0.75"/>
<path id="Path 2 Copy" fill-rule="evenodd" clip-rule="evenodd" d="M2510.49 1235.1C2558.49 976.297 2417.65 747.436 1850.49 699.316C1283.34 651.196 1254.25 339.315 943.214 58.9695C632.177 -221.376 64.4346 -418.414 -94.697 105.136C-253.829 628.685 -191.985 969.888 325.222 1400.67C842.428 1831.46 1386.87 1742.45 1611.85 1709.34C1836.84 1676.23 2462.49 1493.9 2510.49 1235.1Z" fill="url(#paint1_linear_0_54)" fill-opacity="0.75"/>
<path id="Path 2 Copy 4" opacity="0.400646" fill-rule="evenodd" clip-rule="evenodd" d="M2454.49 1783.1C2502.49 1524.3 2361.65 1295.44 1794.49 1247.32C1227.34 1199.2 1198.25 887.315 887.214 606.97C576.177 326.624 8.43457 129.586 -150.697 653.136C-309.829 1176.69 -247.985 1517.89 269.222 1948.67C786.428 2379.46 1330.87 2290.45 1555.85 2257.34C1780.84 2224.23 2406.49 2041.9 2454.49 1783.1Z" fill="url(#paint2_linear_0_54)" fill-opacity="0.75"/>
</g>
</g>
<defs>
<linearGradient id="paint0_linear_0_54" x1="3240.17" y1="616.639" x2="2606.59" y2="1922.85" gradientUnits="userSpaceOnUse">
<stop stop-color="#1E2D69"/>
<stop offset="0.999129" stop-color="#0C122C" stop-opacity="0.01"/>
</linearGradient>
<linearGradient id="paint1_linear_0_54" x1="2039.06" y1="730.598" x2="1581.97" y2="1672.69" gradientUnits="userSpaceOnUse">
<stop stop-color="#1E2D69"/>
<stop offset="0.999129" stop-color="#0C122C" stop-opacity="0.01"/>
</linearGradient>
<linearGradient id="paint2_linear_0_54" x1="1983.06" y1="1278.6" x2="1525.97" y2="2220.69" gradientUnits="userSpaceOnUse">
<stop stop-color="#1E2D69"/>
<stop offset="0.999129" stop-color="#0C122C" stop-opacity="0.01"/>
</linearGradient>
</defs>
</svg>
