<svg xmlns="http://www.w3.org/2000/svg" width="135" height="40" viewBox="0 0 135 40" fill="none">
  <path fill-rule="evenodd" clip-rule="evenodd" d="M0 12.5935V12.6921L22.8227 23.2798L45.7258 12.6561V12.6295L22.8227 2.0062L0 12.5935ZM8.22793 12.6431L22.8232 5.87246L37.4198 12.6431L22.8227 19.4131L8.22793 12.6431ZM22.8227 27.3921L0 16.9629V20.8203L22.8227 31.2734L45.7258 20.7848V16.927L22.8227 27.3921ZM22.8227 35.2154L0 24.7853V28.6427L22.8227 39.0971L45.7258 28.6072V24.7497L22.8227 35.2154Z" fill="white"/>
  <path fill-rule="evenodd" clip-rule="evenodd" d="M129.796 20.1699C129.796 19.2754 129.64 18.4413 129.327 17.6677C129.014 16.8941 128.586 16.2172 128.044 15.637C127.502 15.0568 126.87 14.6035 126.147 14.2772C125.424 13.9508 124.653 13.7876 123.834 13.7876C123.015 13.7876 122.244 13.9508 121.521 14.2772C120.799 14.6035 120.166 15.0568 119.624 15.637C119.082 16.2172 118.655 16.8941 118.342 17.6677C118.028 18.4413 117.872 19.2754 117.872 20.1699C117.872 21.0644 118.028 21.8984 118.342 22.672C118.655 23.4456 119.082 24.1226 119.624 24.7027C120.166 25.283 120.799 25.7362 121.521 26.0626C122.244 26.389 123.015 26.5522 123.834 26.5522C124.653 26.5522 125.424 26.389 126.147 26.0626C126.87 25.7362 127.502 25.283 128.044 24.7027C128.586 24.1226 129.014 23.4456 129.327 22.672C129.64 21.8984 129.796 21.0644 129.796 20.1699ZM135 20.1699C135 21.7413 134.711 23.1979 134.133 24.5395C133.555 25.8813 132.76 27.0417 131.748 28.0208C130.736 28.9999 129.55 29.7735 128.188 30.3416C126.827 30.9097 125.376 31.1938 123.834 31.1938C122.292 31.1938 120.847 30.9097 119.498 30.3416C118.149 29.7735 116.968 28.9939 115.957 28.0027C114.945 27.0115 114.15 25.845 113.572 24.5033C112.994 23.1616 112.704 21.7171 112.704 20.1699C112.704 18.6469 113 17.2145 113.59 15.8727C114.18 14.531 114.981 13.3585 115.993 12.3552C117.004 11.3519 118.185 10.5663 119.534 9.99812C120.883 9.43002 122.316 9.14595 123.834 9.14595C125.376 9.14595 126.827 9.43002 128.188 9.99812C129.55 10.5663 130.736 11.3398 131.748 12.319C132.76 13.2981 133.555 14.4645 134.133 15.8183C134.711 17.1722 135 18.6227 135 20.1699ZM110.898 30.5411C110.488 30.7345 110.024 30.8917 109.506 31.0125C108.988 31.1334 108.452 31.1938 107.898 31.1938C107.128 31.1938 106.387 31.0911 105.676 30.8856C104.965 30.6801 104.345 30.3477 103.815 29.8884C103.285 29.4291 102.864 28.8307 102.55 28.0933C102.237 27.356 102.081 26.4675 102.081 25.428V0.551651H107.393V24.5215C107.393 25.3917 107.567 25.9901 107.916 26.3165C108.266 26.6428 108.681 26.806 109.163 26.806C109.765 26.806 110.344 26.6247 110.898 26.2621V30.5411V30.5411ZM99.7318 9.65364L90.3365 34.5663C89.638 36.4278 88.7225 37.7695 87.5902 38.5915C86.458 39.4134 85.109 39.8244 83.5431 39.8244C83.3022 39.8244 83.0372 39.8063 82.7481 39.77C82.459 39.7337 82.182 39.6794 81.917 39.6068L80.1825 34.7476C80.592 34.941 81.0136 35.0921 81.4472 35.2009C81.8809 35.3097 82.2904 35.3641 82.6758 35.3641C83.4949 35.3641 84.2417 35.1767 84.9162 34.802C85.5907 34.4273 86.1087 33.7322 86.4701 32.7169L87.1928 30.6136L79.1346 9.65364H84.8079L89.6138 23.1434L94.1308 9.65364H99.7318ZM77.8698 6.49877H64.2829V13.2437H77.6892V17.8128H64.2829V30.6499H58.7903V1.67578H77.8698V6.49877Z" fill="white"/>
</svg>