<svg xmlns="http://www.w3.org/2000/svg" width="176" height="48" viewBox="0 0 176 48" fill="none">
  <rect width="48" height="48" rx="10" fill="#0C122C"/>
  <path fill-rule="evenodd" clip-rule="evenodd" d="M16.4356 12H26.0281L33.2225 19.1944V33.5831C33.2225 34.9081 32.1493 35.9813 30.8243 35.9813H16.4236C15.0986 35.9813 14.0375 34.9081 14.0375 33.5831L14.0494 14.3981C14.0494 13.0731 15.1106 12 16.4356 12ZM24.829 13.7986V20.3934H31.4239L24.829 13.7986Z" fill="#697ED4"/>
  <rect x="64" width="48" height="48" rx="10" fill="#0C122C"/>
  <path d="M97.6 16.4H88L85.6 14H78.4C77.074 14 76.012 15.074 76.012 16.4L76 30.8C76 32.126 77.074 33.2 78.4 33.2H97.6C98.926 33.2 100 32.126 100 30.8V18.8C100 17.4741 98.926 16.4 97.6 16.4Z" fill="#697ED4"/>
  <rect x="128" width="48" height="48" rx="10" fill="#0C122C"/>
  <path fill-rule="evenodd" clip-rule="evenodd" d="M152 16C155.7 16 158.7 18.6 159.4 22C161.9 22.2 164 24.4 164 27C164 29.8 161.8 32 159 32H146C142.7 32 140 29.3 140 26C140 22.9 142.3 20.4 145.4 20C146.6 17.6 149.1 16 152 16ZM154 29V25H157L152 20L147 25H150V29H154Z" fill="#697ED4"/>
</svg>